HIERARCHY
ROOT hip
{
  OFFSET 0 0 0
  CHANNELS 6 Xposition Yposition Zposition Zrotation Yrotation Xrotation
  JOINT abdomen
  {
    OFFSET 0 20.6881 -0.73152
    CHANNELS 3 Zrotation Xrotation Yrotation
    JOINT chest
    {
      OFFSET 0 11.7043 -0.48768
      CHANNELS 3 Zrotation Xrotation Yrotation
      JOINT neck
      {
        OFFSET 0 22.1894 -2.19456
        CHANNELS 3 Zrotation Xrotation Yrotation
        JOINT head
        {
          OFFSET -0.24384 7.07133 1.2192
          CHANNELS 3 Zrotation Xrotation Yrotation
          JOINT leftEye
          {
            OFFSET 4.14528 8.04674 8.04672
            CHANNELS 3 Zrotation Xrotation Yrotation
            End Site
            {
              OFFSET 1 0 0
            }
          }
          JOINT rightEye
          {
            OFFSET -3.6576 8.04674 8.04672
            CHANNELS 3 Zrotation Xrotation Yrotation
            End Site
            {
              OFFSET 1 0 0
            }
          }
        }
      }
      JOINT rCollar
      {
        OFFSET -2.68224 19.2634 -4.8768
        CHANNELS 3 Zrotation Xrotation Yrotation
        JOINT rShldr
        {
          OFFSET -8.77824 -1.95073 1.46304
          CHANNELS 3 Zrotation Xrotation Yrotation
          JOINT rForeArm
          {
            OFFSET -28.1742 -1.7115 0.48768
            CHANNELS 3 Zrotation Xrotation Yrotation
            JOINT rHand
            {
              OFFSET -22.5879 0.773209 7.07136
              CHANNELS 3 Zrotation Xrotation Yrotation
              JOINT rThumb1
              {
                OFFSET -1.2192 -0.487915 3.41376
                CHANNELS 3 Zrotation Xrotation Yrotation
                JOINT rThumb2
                {
                  OFFSET -3.37035 -0.52449 3.41376
                  CHANNELS 3 Zrotation Xrotation Yrotation
                  End Site
                  {
                    OFFSET -1.78271 -1.18214 1.43049
                  }
                }
              }
              JOINT rIndex1
              {
                OFFSET -7.75947 0.938293 5.60832
                CHANNELS 3 Zrotation Xrotation Yrotation
                JOINT rIndex2
                {
                  OFFSET -2.54057 -0.884171 1.56538
                  CHANNELS 3 Zrotation Xrotation Yrotation
                  End Site
                  {
                    OFFSET -1.62519 -0.234802 1.16502
                  }
                }
              }
              JOINT rMid1
              {
                OFFSET -8.24714 1.18213 3.41376
                CHANNELS 3 Zrotation Xrotation Yrotation
                JOINT rMid2
                {
                  OFFSET -3.10165 -0.590103 1.0647
                  CHANNELS 3 Zrotation Xrotation Yrotation
                  End Site
                  {
                    OFFSET -2.48547 -0.328903 0.83742
                  }
                }
              }
              JOINT rRing1
              {
                OFFSET -8.82822 0.546677 1.51678
                CHANNELS 3 Zrotation Xrotation Yrotation
                JOINT rRing2
                {
                  OFFSET -2.60934 -0.819778 -0.0198488
                  CHANNELS 3 Zrotation Xrotation Yrotation
                  End Site
                  {
                    OFFSET -2.33842 -0.294052 0.168128
                  }
                }
              }
              JOINT rPinky1
              {
                OFFSET -8.27202 -0.0477905 -0.4584
                CHANNELS 3 Zrotation Xrotation Yrotation
                JOINT rPinky2
                {
                  OFFSET -1.82734 -0.647385 -0.700984
                  CHANNELS 3 Zrotation Xrotation Yrotation
                  End Site
                  {
                    OFFSET -1.69225 -0.51767 -0.607171
                  }
                }
              }
            }
          }
        }
      }
      JOINT lCollar
      {
        OFFSET 2.68224 19.2634 -4.8768
        CHANNELS 3 Zrotation Xrotation Yrotation
        JOINT lShldr
        {
          OFFSET 8.77824 -1.95073 1.46304
          CHANNELS 3 Zrotation Xrotation Yrotation
          JOINT lForeArm
          {
            OFFSET 28.1742 -1.7115 0.48768
            CHANNELS 3 Zrotation Xrotation Yrotation
            JOINT lHand
            {
              OFFSET 22.5879 0.773209 7.07136
              CHANNELS 3 Zrotation Xrotation Yrotation
              JOINT lThumb1
              {
                OFFSET 1.2192 -0.487915 3.41376
                CHANNELS 3 Zrotation Xrotation Yrotation
                JOINT lThumb2
                {
                  OFFSET 3.37035 -0.52449 3.41376
                  CHANNELS 3 Zrotation Xrotation Yrotation
                  End Site
                  {
                    OFFSET 1.78271 -1.18214 1.43049
                  }
                }
              }
              JOINT lIndex1
              {
                OFFSET 7.75947 0.938293 5.60832
                CHANNELS 3 Zrotation Xrotation Yrotation
                JOINT lIndex2
                {
                  OFFSET 2.54057 -0.884171 1.56538
                  CHANNELS 3 Zrotation Xrotation Yrotation
                  End Site
                  {
                    OFFSET 1.62519 -0.234802 1.16502
                  }
                }
              }
              JOINT lMid1
              {
                OFFSET 8.24714 1.18213 3.41376
                CHANNELS 3 Zrotation Xrotation Yrotation
                JOINT lMid2
                {
                  OFFSET 3.10165 -0.590103 1.0647
                  CHANNELS 3 Zrotation Xrotation Yrotation
                  End Site
                  {
                    OFFSET 2.48547 -0.328903 0.83742
                  }
                }
              }
              JOINT lRing1
              {
                OFFSET 8.82822 0.546677 1.51678
                CHANNELS 3 Zrotation Xrotation Yrotation
                JOINT lRing2
                {
                  OFFSET 2.60934 -0.819778 -0.0198488
                  CHANNELS 3 Zrotation Xrotation Yrotation
                  End Site
                  {
                    OFFSET 2.33842 -0.294052 0.168128
                  }
                }
              }
              JOINT lPinky1
              {
                OFFSET 8.27202 -0.0477905 -0.4584
                CHANNELS 3 Zrotation Xrotation Yrotation
                JOINT lPinky2
                {
                  OFFSET 1.82734 -0.647385 -0.700984
                  CHANNELS 3 Zrotation Xrotation Yrotation
                  End Site
                  {
                    OFFSET 1.69225 -0.51767 -0.607171
                  }
                }
              }
            }
          }
        }
      }
    }
  }
  JOINT rButtock
  {
    OFFSET -8.77824 4.35084 1.2192
    CHANNELS 3 Zrotation Xrotation Yrotation
    JOINT rThigh
    {
      OFFSET 0 -1.70687 -2.19456
      CHANNELS 3 Zrotation Xrotation Yrotation
      JOINT rShin
      {
        OFFSET 0 -36.8199 0.73152
        CHANNELS 3 Zrotation Xrotation Yrotation
        JOINT rFoot
        {
          OFFSET 0.73152 -45.1104 -5.12064
          CHANNELS 3 Zrotation Xrotation Yrotation
          End Site
          {
            OFFSET -1.1221 -3.69964 12.103
          }
        }
      }
    }
  }
  JOINT lButtock
  {
    OFFSET 8.77824 4.35084 1.2192
    CHANNELS 3 Zrotation Xrotation Yrotation
    JOINT lThigh
    {
      OFFSET 0 -1.70687 -2.19456
      CHANNELS 3 Zrotation Xrotation Yrotation
      JOINT lShin
      {
        OFFSET 0 -36.8199 0.73152
        CHANNELS 3 Zrotation Xrotation Yrotation
        JOINT lFoot
        {
          OFFSET -0.73152 -45.1104 -5.12064
          CHANNELS 3 Zrotation Xrotation Yrotation
          End Site
          {
            OFFSET 1.1221 -3.69964 12.103
          }
        }
      }
    }
  }
}
MOTION
Frames:	5
Frame Time:	0.00833333
74.1484 83.6799 8.62254 -189.932 -264.406 170.137 -0.720003 12.5631 0.860373 -0.171522 -0.401668 0.339407 5.94758 8.07656 4.1601 -7.83206 -30.2189 5.54786 -0.0 0.0 0.0 -0.0 0.0 0.0 1.9806e-14 -9.49451e-13 -8.50872e-14 83.1749 31.6147 -11.8231 -19.5546 -12.4616 37.6103 -0.900359 -25.9028 -3.91357 -4.16951e-10 1.46955e-10 -9.96447e-11 -7.20443e-10 2.64593e-10 -1.81213e-10 -4.16944e-10 1.46955e-10 -9.96498e-11 7.73091 5.47488 0.417314 -4.16955e-10 1.46951e-10 -9.96303e-11 2.90554 0.965183 0.102902 -4.16943e-10 1.46955e-10 -9.96433e-11 10.2786 0.731801 0.0259123 -4.1696e-10 1.46957e-10 -9.96323e-11 2.22167 -0.733487 -0.20892 1.97705e-14 -9.49451e-13 -8.52844e-14 -76.2304 41.3422 1.27718 17.9662 -10.6501 -33.9449 0.038281 -5.57511 0.786038 1.47138e-10 -1.24875e-10 -8.01495e-11 2.57622e-10 -2.16183e-10 -1.38527e-10 1.47127e-10 -1.24874e-10 -8.01367e-11 -7.73091 5.47488 -0.417314 1.47136e-10 -1.24874e-10 -8.0151e-11 -2.90554 0.965183 -0.102902 1.47135e-10 -1.24873e-10 -8.01495e-11 -10.2786 0.731801 -0.0259123 1.47142e-10 -1.24871e-10 -8.01567e-11 -2.22167 -0.733487 0.20892 -2.03217e-16 0.0 -3.88251e-19 8.71877 -15.739 20.1328 -0.162708 32.7704 0.716722 -10.3567 -16.4911 -26.4331 2.03217e-16 0.0 3.88251e-19 -3.13713 -13.5234 -16.212 0.193808 33.0878 -0.754743 8.73593 -19.0885 19.8521
74.1149 83.6373 8.69998 -193.836 -264.244 166.186 -0.428328 12.8289 0.725566 -0.190972 -0.528911 0.311863 6.0637 8.18297 4.22941 -8.05208 -30.415 5.61476 -0.0 0.0 0.0 -0.0 0.0 0.0 2.25841e-14 -9.45994e-13 -8.08029e-14 83.1429 31.5902 -11.8745 -19.5715 -12.4816 37.6514 -0.901894 -25.9229 -3.91706 -4.31582e-10 6.10432e-12 6.19894e-11 -7.48575e-10 1.87561e-11 9.87646e-11 -4.31576e-10 6.1051e-12 6.1985e-11 7.73091 5.47488 0.417314 -4.31585e-10 6.10201e-12 6.19996e-11 2.90554 0.965183 0.102902 -4.31576e-10 6.10395e-12 6.19944e-11 10.2786 0.731801 0.0259123 -4.31592e-10 6.10613e-12 6.20065e-11 2.22167 -0.733487 -0.20892 2.25042e-14 -9.45991e-13 -8.10203e-14 -76.1985 42.0971 1.54285 17.9457 -10.6278 -33.9 0.0385257 -5.59269 0.788533 2.41596e-10 -1.01709e-10 -2.02752e-10 4.21118e-10 -1.76245e-10 -3.50901e-10 2.41586e-10 -1.01706e-10 -2.0274e-10 -7.73091 5.47488 -0.417314 2.41596e-10 -1.01705e-10 -2.02753e-10 -2.90554 0.965183 -0.102902 2.41592e-10 -1.01704e-10 -2.02752e-10 -10.2786 0.731801 -0.0259123 2.41599e-10 -1.01702e-10 -2.0276e-10 -2.22167 -0.733487 0.20892 -2.03217e-16 0.0 -3.88251e-19 8.93776 -15.7415 20.0905 -0.163203 32.8333 0.716537 -10.3329 -16.5274 -26.3539 2.03217e-16 0.0 3.88251e-19 -2.89502 -13.6223 -16.0191 0.197554 33.3718 -0.762803 8.76215 -19.3525 19.7155
74.0704 83.5984 8.71275 -194.424 -264.141 165.596 -0.146789 13.1422 0.599938 -0.216972 -0.671294 0.286701 6.20618 8.30593 4.29546 -8.33899 -30.6725 5.65174 -0.0 0.0 0.0 -0.0 0.0 0.0 2.35812e-14 -8.7342e-13 -7.04323e-14 83.0954 31.5513 -11.9106 -19.5982 -12.5142 37.7153 -0.904618 -25.9586 -3.92329 -4.1458e-10 -1.13662e-10 2.02527e-10 -7.21374e-10 -1.91119e-10 3.42796e-10 -4.14575e-10 -1.1366e-10 2.02523e-10 7.73091 5.47488 0.417314 -4.14582e-10 -1.13662e-10 2.02532e-10 2.90554 0.965183 0.102902 -4.14576e-10 -1.13662e-10 2.02535e-10 10.2786 0.731801 0.0259123 -4.14591e-10 -1.1366e-10 2.02548e-10 2.22167 -0.733487 -0.20892 2.34593e-14 -8.73416e-13 -7.0673e-14 -76.16 42.8393 1.86518 17.9454 -10.6275 -33.8995 0.038742 -5.60857 0.790786 3.10796e-10 -6.83187e-11 -2.9478e-10 5.40496e-10 -1.18543e-10 -5.10296e-10 3.10787e-10 -6.8313e-11 -2.9477e-10 -7.73091 5.47488 -0.417314 3.10797e-10 -6.8311e-11 -2.9478e-10 -2.90554 0.965183 -0.102902 3.10791e-10 -6.83096e-11 -2.94781e-10 -10.2786 0.731801 -0.0259123 3.10798e-10 -6.83087e-11 -2.94789e-10 -2.22167 -0.733487 0.20892 -2.03217e-16 0.0 -3.88251e-19 9.15974 -15.7846 20.0658 -0.164009 32.9146 0.716684 -10.303 -16.5489 -26.2739 2.03217e-16 0.0 3.88251e-19 -2.65941 -13.7512 -15.8268 0.201337 33.6507 -0.77053 8.78214 -19.6042 19.5771
74.0099 83.5576 8.65361 -192.422 -264.158 167.607 -0.00592392 13.4878 0.505158 -0.22662 -0.809132 0.265707 6.3277 8.41734 4.34004 -8.64302 -30.99 5.63896 -0.0 0.0 0.0 -0.0 0.0 0.0 2.23351e-14 -7.58701e-13 -5.55106e-14 83.0085 31.468 -11.9238 -19.6528 -12.5814 37.8438 -0.908765 -26.0131 -3.93278 -3.54711e-10 -1.43253e-10 2.53557e-10 -6.18059e-10 -2.44849e-10 4.32556e-10 -3.54706e-10 -1.4325e-10 2.53554e-10 7.73091 5.47488 0.417314 -3.54713e-10 -1.43252e-10 2.5356e-10 2.90554 0.965183 0.102902 -3.54708e-10 -1.43253e-10 2.53567e-10 10.2786 0.731801 0.0259123 -3.54722e-10 -1.43251e-10 2.53579e-10 2.22167 -0.733487 -0.20892 2.21941e-14 -7.58697e-13 -5.57591e-14 -76.0899 43.5951 2.23312 17.9832 -10.6686 -33.9826 0.0391245 -5.63652 0.794753 3.41499e-10 -5.01955e-11 -3.19477e-10 5.92768e-10 -8.72076e-11 -5.53033e-10 3.41491e-10 -5.01892e-11 -3.19468e-10 -7.73091 5.47488 -0.417314 3.41501e-10 -5.0187e-11 -3.19477e-10 -2.90554 0.965183 -0.102902 3.41494e-10 -5.01855e-11 -3.19478e-10 -10.2786 0.731801 -0.0259123 3.41501e-10 -5.01852e-11 -3.19487e-10 -2.22167 -0.733487 0.20892 -2.03217e-16 0.0 -3.88251e-19 9.27038 -15.9248 20.0493 -0.165667 33.046 0.719319 -10.2934 -16.5907 -26.2091 2.03217e-16 0.0 3.88251e-19 -2.54129 -13.9352 -15.6392 0.204495 33.8778 -0.776114 8.77832 -19.7915 19.4365
73.9365 83.517 8.60588 -190.851 -264.116 169.245 -0.0746081 13.8327 0.457702 -0.206044 -0.941695 0.250792 6.42188 8.5031 4.3489 -8.96982 -31.3424 5.54757 -0.0 0.0 0.0 -0.0 0.0 0.0 1.84435e-14 -5.8424e-13 -3.46246e-14 82.8895 31.303 -11.9112 -19.7279 -12.6728 38.026 -0.914298 -26.0853 -3.94538 -2.22854e-10 -2.91968e-11 1.70002e-10 -3.87151e-10 -4.98636e-11 2.90393e-10 -2.22849e-10 -2.91949e-11 1.70001e-10 7.73091 5.47488 0.417314 -2.22855e-10 -2.91966e-11 1.70007e-10 2.90554 0.965183 0.102902 -2.22852e-10 -2.91967e-11 1.7001e-10 10.2786 0.731801 0.0259123 -2.22863e-10 -2.91943e-11 1.70021e-10 2.22167 -0.733487 -0.20892 1.83196e-14 -5.84237e-13 -3.48494e-14 -75.9726 44.3668 2.61404 18.0505 -10.7401 -34.1367 0.0391887 -5.62538 0.793197 2.79913e-10 -5.33659e-11 -2.3387e-10 4.84478e-10 -9.26495e-11 -4.04786e-10 2.79906e-10 -5.33613e-11 -2.33861e-10 -7.73091 5.47488 -0.417314 2.79914e-10 -5.33603e-11 -2.33871e-10 -2.90554 0.965183 -0.102902 2.79906e-10 -5.33592e-11 -2.33871e-10 -10.2786 0.731801 -0.0259123 2.79915e-10 -5.33591e-11 -2.3388e-10 -2.22167 -0.733487 0.20892 -2.03217e-16 0.0 -3.88251e-19 9.20806 -16.1843 20.0408 -0.168542 33.2465 0.725772 -10.3247 -16.6699 -26.1842 2.03217e-16 0.0 3.88251e-19 -2.59426 -14.1712 -15.4471 0.206391 34.0153 -0.77845 8.74472 -19.9016 19.2898
